<svg xmlns="http://www.w3.org/2000/svg" viewBox="0 0 500 500"><g id="freepik--background-complete--inject-207"><rect x="145.72" y="420.62" width="17.69" height="62.03" style="fill:#f5f5f5"></rect><path d="M211.77,425.89s-.75-.5.9-2.67-.9-3.34-.9-3.34c-7.23,4.18-17.33,0-17.33,0s11.91-3.67,13.41-7.18c1.13-2.62-.86-2.91-1.93-2.88,1.21-.13,3.84-.56,4.64-2,1.06-1.84-3.08-4-3.08-4a3.25,3.25,0,0,0,0-2.83c-.68-1.84-16.2-4.51-16.2-4.51,4.52.5,6.18-4,6.18-4s7.68.17,9.49-2.84-1.21-3.84-6.33-6.34-16.42-11.86-16.42-11.86,7.08-.66,9-2.33.15-2,.15-2c8.44.84,5.57-3.67,5.57-3.67a37.78,37.78,0,0,1-17.32-11.19s5.27-1.17,8-3.67-2.26-3.17-2.26-3.17,9.95-1.34,4.22-5c-4.35-2.79-11.31-6.55-13.47-7.68,2.37.87,7.75-.17,7.75-.17,6.33-2.84,0-7,0-7-7.38-4.17-18.23-14.69-18.23-14.69s5.42,2.83,8.14,2-3-4.17-3-4.17,2.86.83,4.07,0-3.16-4.68-3.16-4.68c-6.5-4.22-14.5-15.29-17.85-20.05-3.35,4.76-11.36,15.83-17.85,20.05,0,0-4.37,3.84-3.16,4.68s4.06,0,4.06,0-5.72,3.33-3,4.17,8.14-2,8.14-2-10.85,10.52-18.23,14.69c0,0-6.33,4.17,0,7,0,0,5.38,1,7.75.17-2.16,1.13-9.12,4.89-13.47,7.68-5.73,3.67,4.21,5,4.21,5s-5,.67-2.26,3.17,8,3.67,8,3.67a37.78,37.78,0,0,1-17.33,11.19s-2.86,4.51,5.58,3.67c0,0-1.81.34.15,2s9,2.33,9,2.33-11.3,9.35-16.42,11.86-8.14,3.34-6.33,6.34,9.49,2.84,9.49,2.84,1.66,4.51,6.18,4c0,0-15.52,2.67-16.2,4.51a3.2,3.2,0,0,0,0,2.83s-4.14,2.17-3.09,4c.81,1.4,3.44,1.83,4.65,2-1.08,0-3.06.26-1.93,2.88,1.5,3.51,13.4,7.18,13.4,7.18s-10.09,4.18-17.32,0c0,0-2.56,1.17-.9,3.34s.9,2.67.9,2.67-3.77-2.83-2.11,1.51,10.39,7,10.39,7-5,.83-3.46,3.51,7.83,5.84,14.76,6.51,16.27-1.84,16.27-1.84-6.33,3.34-2,5.18,9.34-2.34,9.34-2.34-.9,4.27,2.71,2.8a24.7,24.7,0,0,0,6.63-4.3s1.13,6.29,3.39,4.79c2.26,1.5,3.39-4.79,3.39-4.79a24.75,24.75,0,0,0,6.62,4.3c3.62,1.47,2.71-2.8,2.71-2.8s5,4.17,9.34,2.34-2-5.18-2-5.18,9.34,2.5,16.27,1.84,13.25-3.84,14.76-6.51-3.47-3.51-3.47-3.51,8.74-2.67,10.4-7S211.77,425.89,211.77,425.89Z" style="fill:#f5f5f5"></path><polygon points="288.87 475.05 280.66 469.23 279.46 461.32 275.22 458.33 272.87 452.06 268.56 447.81 252.98 448.29 247.23 457.59 242.96 467.77 236.95 471.89 232.3 484 292.45 484 288.87 475.05" style="fill:#ebebeb"></polygon><path d="M279.54,482.67c0-.21-3.64-8.13-3.64-8.13l-10.4-5.85-12.07,3L264.79,470l9.65,5.61Z" style="fill:#fafafa"></path><path d="M254.5,471.42h.05l.16,0,.61-.15,2.28-.55,7.92-1.94h0l4.82,2.72,5.58,3.13,0,0,3.26,6.81c.41.82.73,1.48.95,1.94l.25.52.07.13a.11.11,0,0,0,0,0,.1.1,0,0,0,0-.05l-.06-.13c-.05-.12-.13-.3-.24-.52l-.91-2-3.24-6.82h0l-5.57-3.14-4.82-2.71h0l-7.9,2-2.28.57-.6.16-.16,0Z" style="fill:#e0e0e0"></path><path d="M440.48,86.49a33.75,33.75,0,0,0-4-8.27A11.39,11.39,0,0,0,429,73.34c-3.05-.37-6.42,1.27-7.42,4.18-.43-6.55-1.36-13.27-4.64-18.95S407.54,48.42,401,48.82c-6.17.37-11.46,5-14.4,10.41s-3.95,11.69-4.91,17.8c-2.34-2.87-7.28-2-9.73.82s-3.06,6.68-3.58,10.34l73,.76Z" style="fill:#ebebeb"></path><path d="M131.52,77.34a34,34,0,0,0-4-8.27A11.44,11.44,0,0,0,120,64.18c-3-.37-6.42,1.28-7.41,4.18-.44-6.54-1.37-13.26-4.65-19S98.57,39.26,92,39.66c-6.17.38-11.46,5-14.4,10.41s-3.94,11.69-4.91,17.81c-2.34-2.88-7.28-2-9.73.81S59.92,75.37,59.4,79l73,.76Z" style="fill:#f5f5f5"></path><path d="M295.41,300.15a27.53,27.53,0,0,0-3.22-6.69,9.2,9.2,0,0,0-6.07-3.94,5.64,5.64,0,0,0-6,3.37c-.36-5.29-1.11-10.72-3.75-15.31s-7.6-8.21-12.89-7.88c-5,.3-9.27,4-11.64,8.41s-3.19,9.45-4,14.39c-1.89-2.32-5.89-1.59-7.86.66s-2.48,5.4-2.9,8.37l59,.61Z" style="fill:#ebebeb"></path><path d="M470.14,237.47a27.14,27.14,0,0,0-3.23-6.68,9.19,9.19,0,0,0-6.06-3.95,5.64,5.64,0,0,0-6,3.38c-.35-5.3-1.1-10.73-3.75-15.32s-7.59-8.21-12.89-7.88c-5,.3-9.26,4-11.64,8.41s-3.19,9.45-4,14.39c-1.89-2.32-5.89-1.59-7.86.66s-2.47,5.4-2.89,8.37l59,.61Z" style="fill:#ebebeb"></path><path d="M92.66,222.92a27.2,27.2,0,0,0-3.23-6.69,9.21,9.21,0,0,0-6.06-3.94,5.62,5.62,0,0,0-6,3.37c-.35-5.29-1.1-10.72-3.75-15.31s-7.59-8.21-12.89-7.89c-5,.31-9.26,4-11.64,8.42s-3.19,9.45-4,14.39c-1.89-2.32-5.89-1.59-7.86.66s-2.47,5.4-2.89,8.36l59,.62Z" style="fill:#ebebeb"></path><path d="M253.33,144.28c-1.4-3.72-2.82-7.5-5.16-10.71s-5.78-5.84-9.72-6.32-8.32,1.65-9.61,5.41c-.56-8.48-1.77-17.18-6-24.54S210.67,95,202.19,95.5c-8,.49-14.84,6.43-18.65,13.48s-5.11,15.14-6.36,23c-3-3.72-9.43-2.55-12.59,1.06s-4,8.65-4.64,13.4l94.48,1Z" style="fill:#f5f5f5"></path><rect x="306.65" y="439.57" width="12.4" height="43.48" style="fill:#ebebeb"></rect><path d="M352.94,443.27s-.53-.35.63-1.88a1.47,1.47,0,0,0-.63-2.34c-5.07,2.93-12.14,0-12.14,0s8.34-2.57,9.4-5c.78-1.83-.61-2-1.36-2,.85-.09,2.69-.39,3.26-1.37.74-1.29-2.17-2.81-2.17-2.81a2.24,2.24,0,0,0,0-2c-.47-1.29-11.35-3.16-11.35-3.16,3.17.35,4.33-2.81,4.33-2.81s5.39.12,6.65-2-.84-2.69-4.43-4.44-11.51-8.31-11.51-8.31,5-.47,6.34-1.64.1-1.4.1-1.4c5.91.58,3.91-2.58,3.91-2.58a26.35,26.35,0,0,1-12.14-7.84s3.69-.82,5.59-2.57-1.58-2.22-1.58-2.22,7-.94,3-3.51c-3-2-7.92-4.59-9.44-5.38,1.66.61,5.43-.12,5.43-.12,4.44-2,0-4.92,0-4.92C329.61,370,322,362.64,322,362.64s3.8,2,5.7,1.41-2.11-2.93-2.11-2.93,2,.59,2.85,0-2.22-3.27-2.22-3.27c-4.55-3-10.16-10.72-12.51-14.05-2.34,3.33-8,11.09-12.51,14.05,0,0-3.06,2.69-2.21,3.27s2.85,0,2.85,0-4,2.34-2.11,2.93,5.7-1.41,5.7-1.41-7.6,7.38-12.78,10.3c0,0-4.43,2.93,0,4.92,0,0,3.77.73,5.44.12-1.52.79-6.4,3.42-9.45,5.38-4,2.57,3,3.51,3,3.51s-3.49.46-1.59,2.22,5.6,2.57,5.6,2.57a26.35,26.35,0,0,1-12.14,7.84s-2,3.16,3.91,2.58c0,0-1.27.23.1,1.4s6.34,1.64,6.34,1.64-7.92,6.55-11.51,8.31-5.7,2.34-4.44,4.44,6.65,2,6.65,2,1.17,3.16,4.33,2.81c0,0-10.87,1.87-11.35,3.16a2.28,2.28,0,0,0,0,2s-2.9,1.52-2.16,2.81c.56,1,2.41,1.28,3.26,1.37-.76,0-2.15.19-1.36,2,1.06,2.46,9.4,5,9.4,5s-7.08,2.93-12.14,0a1.48,1.48,0,0,0-.64,2.34c1.16,1.53.64,1.88.64,1.88s-2.64-2-1.48,1.05,7.28,4.91,7.28,4.91-3.48.59-2.43,2.46,5.49,4.1,10.35,4.56,11.4-1.28,11.4-1.28-4.43,2.34-1.37,3.63S304.8,457,304.8,457s-.63,3,1.9,2a17.23,17.23,0,0,0,4.65-3s.79,4.42,2.37,3.36c1.59,1.06,2.38-3.36,2.38-3.36a17.28,17.28,0,0,0,4.64,3c2.54,1,1.9-2,1.9-2s3.49,2.92,6.55,1.64-1.37-3.63-1.37-3.63,6.54,1.75,11.4,1.28,9.29-2.69,10.34-4.56-2.43-2.46-2.43-2.46,6.13-1.87,7.29-4.91S352.94,443.27,352.94,443.27Z" style="fill:#e0e0e0"></path><rect x="444.24" y="437.2" width="13.08" height="45.85" style="fill:#ebebeb"></rect><path d="M493.06,441.1s-.56-.37.66-2a1.55,1.55,0,0,0-.66-2.47c-5.35,3.09-12.81,0-12.81,0s8.8-2.71,9.91-5.3c.83-1.94-.63-2.15-1.43-2.14.9-.09,2.84-.41,3.43-1.44.78-1.36-2.28-3-2.28-3a2.4,2.4,0,0,0,0-2.1c-.5-1.36-12-3.33-12-3.33,3.34.37,4.57-3,4.57-3s5.68.12,7-2.1-.89-2.84-4.67-4.69-12.14-8.76-12.14-8.76,5.23-.5,6.68-1.73.11-1.48.11-1.48c6.24.62,4.12-2.72,4.12-2.72a27.87,27.87,0,0,1-12.8-8.26s3.9-.87,5.9-2.72-1.67-2.34-1.67-2.34,7.35-1,3.12-3.7c-3.22-2.07-8.36-4.84-10-5.68,1.75.65,5.73-.12,5.73-.12,4.67-2.1,0-5.19,0-5.19-5.46-3.08-13.48-10.86-13.48-10.86s4,2.1,6,1.49-2.23-3.09-2.23-3.09,2.12.62,3,0-2.34-3.45-2.34-3.45c-4.8-3.12-10.72-11.31-13.19-14.82-2.48,3.51-8.39,11.7-13.19,14.82,0,0-3.23,2.83-2.34,3.45s3,0,3,0-4.23,2.47-2.22,3.09,6-1.49,6-1.49-8,7.78-13.47,10.86c0,0-4.68,3.09,0,5.19,0,0,4,.77,5.73.12-1.6.84-6.75,3.61-10,5.68-4.23,2.71,3.11,3.7,3.11,3.7s-3.67.49-1.66,2.34,5.9,2.72,5.9,2.72a27.93,27.93,0,0,1-12.81,8.26s-2.11,3.34,4.12,2.72c0,0-1.33.25.11,1.48s6.68,1.73,6.68,1.73-8.35,6.91-12.13,8.76-6,2.47-4.68,4.69,7,2.1,7,2.1,1.22,3.33,4.56,3c0,0-11.47,2-12,3.33a2.4,2.4,0,0,0,0,2.1s-3.06,1.6-2.28,3c.59,1,2.54,1.35,3.43,1.44-.79,0-2.26.2-1.43,2.14,1.12,2.59,9.91,5.3,9.91,5.3s-7.46,3.09-12.8,0a1.56,1.56,0,0,0-.67,2.47c1.23,1.61.67,2,.67,2s-2.78-2.1-1.56,1.11,7.68,5.18,7.68,5.18-3.67.62-2.56,2.59,5.79,4.32,10.91,4.81,12-1.35,12-1.35-4.68,2.46-1.45,3.82,6.9-1.73,6.9-1.73-.67,3.16,2,2.08a18.19,18.19,0,0,0,4.89-3.19s.84,4.66,2.51,3.54c1.67,1.12,2.5-3.54,2.5-3.54a18.34,18.34,0,0,0,4.9,3.19c2.67,1.08,2-2.08,2-2.08s3.68,3.09,6.91,1.73-1.45-3.82-1.45-3.82,6.9,1.85,12,1.35,9.8-2.84,10.91-4.81-2.56-2.59-2.56-2.59,6.46-2,7.68-5.18S493.06,441.1,493.06,441.1Z" style="fill:#e0e0e0"></path></g><g id="freepik--Floor--inject-207"><path d="M489.52,484c0,.15-107.27.26-239.57.26S10.37,484.14,10.37,484s107.24-.26,239.58-.26S489.52,483.85,489.52,484Z" style="fill:#263238"></path></g><g id="freepik--Trees--inject-207"><rect x="81.49" y="413.07" width="17.27" height="69.09" style="fill:#6f4439"></rect><path d="M24.65,412.87s.85-.56-1-3,1-3.76,1-3.76c8.16,4.69,19.55,0,19.55,0S30.77,402,29.07,398c-1.27-2.94,1-3.27,2.18-3.24-1.37-.15-4.34-.63-5.24-2.2-1.19-2.07,3.48-4.51,3.48-4.51a3.64,3.64,0,0,1,0-3.19c.77-2.07,18.28-5.07,18.28-5.07-5.1.56-7-4.51-7-4.51s-8.67.19-10.71-3.19,1.36-4.32,7.14-7.14,18.53-13.33,18.53-13.33-8-.75-10.2-2.63-.17-2.25-.17-2.25c-9.52.94-6.29-4.14-6.29-4.14a42.54,42.54,0,0,0,19.55-12.58s-5.95-1.31-9-4.13,2.55-3.57,2.55-3.57-11.22-1.5-4.76-5.63c4.91-3.14,12.76-7.37,15.21-8.64-2.68,1-8.75-.19-8.75-.19-7.14-3.19,0-7.89,0-7.89,8.33-4.69,20.57-16.52,20.57-16.52s-6.12,3.19-9.18,2.25,3.4-4.69,3.4-4.69-3.23.94-4.59,0,3.57-5.26,3.57-5.26C75,271,84,258.58,87.8,253.23c3.78,5.35,12.81,17.8,20.14,22.55,0,0,4.93,4.32,3.57,5.26s-4.59,0-4.59,0,6.46,3.75,3.4,4.69-9.18-2.25-9.18-2.25,12.24,11.83,20.57,16.52c0,0,7.14,4.7,0,7.89,0,0-6.07,1.17-8.75.19,2.45,1.27,10.3,5.5,15.21,8.64,6.46,4.13-4.76,5.63-4.76,5.63s5.61.75,2.55,3.57-9,4.13-9,4.13a42.54,42.54,0,0,0,19.55,12.58s3.23,5.08-6.29,4.14c0,0,2,.37-.17,2.25s-10.2,2.63-10.2,2.63,12.75,10.52,18.53,13.33,9.18,3.76,7.14,7.14-10.71,3.19-10.71,3.19-1.87,5.07-7,4.51c0,0,17.51,3,18.28,5.07a3.64,3.64,0,0,1,0,3.19s4.67,2.44,3.48,4.51c-.9,1.57-3.87,2.05-5.24,2.2,1.21,0,3.45.3,2.18,3.24-1.7,4-15.13,8.08-15.13,8.08s11.39,4.69,19.55,0c0,0,2.89,1.31,1,3.76s-1,3-1,3,4.25-3.19,2.38,1.69-11.73,7.89-11.73,7.89,5.61.94,3.91,3.94-8.84,6.58-16.66,7.33-18.36-2.07-18.36-2.07,7.14,3.76,2.21,5.82-10.54-2.63-10.54-2.63,1,4.81-3.06,3.16a27.73,27.73,0,0,1-7.48-4.85s-1.27,7.09-3.82,5.39c-2.55,1.7-3.82-5.39-3.82-5.39A27.73,27.73,0,0,1,76.5,438c-4.08,1.65-3.06-3.16-3.06-3.16s-5.61,4.7-10.54,2.63,2.21-5.82,2.21-5.82-10.54,2.82-18.36,2.07-15-4.32-16.66-7.33S34,422.45,34,422.45s-9.86-3-11.73-7.89S24.65,412.87,24.65,412.87Z" style="fill:#455a64"></path><path d="M63,300.57l.27-.12A1.11,1.11,0,0,0,63,300.57Z"></path><g style="opacity:0.1"><path d="M75.77,281.32l4-1.59s2.23,3.32,6.47,1.13a17.05,17.05,0,0,0,6.49-6.49s6,3.93,6.56,1.44a3,3,0,0,0-1.87-3.48,1.58,1.58,0,0,1,.16,1.39c-.26.45-.85.43-1.32.32a7.56,7.56,0,0,1-4-2.64c-1.19,2.83-3.62,4.77-6.11,6.22a4.51,4.51,0,0,1-3.53.82c-1.19-.38-2-2.21-1.09-3.16A10.66,10.66,0,0,1,74,279.52c-.62.05-1.42-.11-1.54-.79a1.54,1.54,0,0,1,.37-1.09A13.15,13.15,0,0,1,76,274.38a18.21,18.21,0,0,1-9.21,3.49l-2.88.38c-.09.35-.06.63.19.8,1.36.94,4.59,0,4.59,0s-6.46,3.76-3.4,4.69,9.18-2.25,9.18-2.25l-.76.72Z"></path></g><g style="opacity:0.1"><path d="M111.92,306.56l-7.86-2.83s-.88,4.78-5.69,4.52c0,0-4.16.35-4.48-4.52,0,0-4,3.9-12.1,2.75,0,0-1.37-.18-1.05-2.39,0,0-2.16,2.74-5.85.79s-.48-5.22-.48-5.22l.49-.26a2.59,2.59,0,0,0-.38,2.12c.41,1,1.67.9,2.6.6a20.24,20.24,0,0,0,7.13-4,7.83,7.83,0,0,0-1.47,2.24A2.85,2.85,0,0,0,83,303a3,3,0,0,0,2.26.9,13.43,13.43,0,0,0,10.93-5c0,1.26-.26,2.5-.22,3.76s.59,2.65,1.67,3c1.3.45,2.61-.77,3.18-2.12s.7-2.91,1.31-4.24a17,17,0,0,0,6.71,4.11,4.54,4.54,0,0,0,2.15.27,2.13,2.13,0,0,0,1.68-1.36,1.64,1.64,0,0,0-.55-1.82c3.15,1.43,10.44,4,11.87.42.77,1.54.6,3.39-2.8,4.91,0,0-6.07,1.18-8.74.2l1.9,1Z"></path></g><g style="opacity:0.1"><path d="M57.22,329.65a14.72,14.72,0,0,0,5.75-2.2,3.27,3.27,0,0,0,3.75,2,9.42,9.42,0,0,0,4-2.25,6,6,0,0,0,4.6,2.65,5.9,5.9,0,0,0,4.77-2.23c5,3.66,10.86,6.36,16.78,5.56a4.24,4.24,0,0,0,3-1.4c.7-.94.6-2.65-.43-3.1,3.62.78,7.38,1.55,11,.56s6.46-4,5.68-8.61a9.15,9.15,0,0,1-.93,2.6,3.57,3.57,0,0,1-2,1.33A23.21,23.21,0,0,1,94.89,323c1.19,1.31.37,3.77-1.12,4.62s-3.29.58-5,.26a20.72,20.72,0,0,1-5.32-1.57,8.61,8.61,0,0,1-4.07-3.95,10.94,10.94,0,0,1-2.44,3.3,3.17,3.17,0,0,1-3.64.47,2.49,2.49,0,0,1-.49-3.61,24.12,24.12,0,0,1-7.72,3.12,2,2,0,0,1-2-.35,1.78,1.78,0,0,1,.12-2.1,2.82,2.82,0,0,1,.6-.55,21.49,21.49,0,0,1-12.17,2l0,.75a27.8,27.8,0,0,0,7,2.66S58.16,328.68,57.22,329.65Z"></path></g><g style="opacity:0.1"><path d="M123.12,355.44a35.46,35.46,0,0,1-10.9-2.91,17.49,17.49,0,0,1-20.48-.11,13.39,13.39,0,0,1-17,1c-2.68,1.24-5.61,2.21-8.46,1.59a6.83,6.83,0,0,1-5.41-6.52,8.65,8.65,0,0,0,13.61,0,9.69,9.69,0,0,0,8.23,3.9,10,10,0,0,0,7.72-5,17.73,17.73,0,0,0,13.83,4,6.79,6.79,0,0,0,3.86-1.63,3.89,3.89,0,0,0,1-4.15,18.14,18.14,0,0,0,21.79.1l.06.12a3.33,3.33,0,0,1-1,1.16c-2.21,1.88-10.2,2.63-10.2,2.63s3.18,2.62,7.09,5.6A17.38,17.38,0,0,1,123.12,355.44Z"></path></g><g style="opacity:0.1"><path d="M35.07,372.79a29.17,29.17,0,0,0,5.73.53s1.87,5.07,7,4.51c0,0-2.54.44-5.72,1.09a12.58,12.58,0,0,0,11.77-1.48,17,17,0,0,0,23.14.78,17.24,17.24,0,0,0,22.54.23c3.48,3.15,8,5,12.51,4.35a12.59,12.59,0,0,0,10.09-8.69A18.43,18.43,0,0,1,99,372.37a3.92,3.92,0,0,1-2.46,3.22,9.12,9.12,0,0,1-4,.41c-5.49-.28-11.3-1.14-15.55-5a12.73,12.73,0,0,1-11.24,5.06,13.32,13.32,0,0,1-10.17-7.31,25.83,25.83,0,0,1-24.68-.52Z"></path></g><g style="opacity:0.1"><path d="M69.4,397.64A5.06,5.06,0,0,0,71.68,402a8.6,8.6,0,0,0,4.58,1.24,19.8,19.8,0,0,0,13.48-4.88,14.45,14.45,0,0,0,23,0A41.15,41.15,0,0,0,145,393.7l1.46.81a4.12,4.12,0,0,1-.37,1.54c-1.7,3.94-15.13,8.07-15.13,8.07a28.61,28.61,0,0,0,3.48,1.1c-2.32.7-4.33,1.28-5.6,1.69-4.74,1.51-10.28.64-13.84-3.14a16.28,16.28,0,0,1-25.53-.25c-3.1,3.5-7.18,6.23-11.6,6.39a10.33,10.33,0,0,1-10.29-7.49c-5.48,2-12-.48-15.24-5.76A17.56,17.56,0,0,0,69.4,397.64Z"></path></g><rect x="194.39" y="431.82" width="12.97" height="51.9" style="fill:#6f4439"></rect><path d="M151.7,431.67s.63-.42-.77-2.26.77-2.82.77-2.82c6.13,3.53,14.68,0,14.68,0s-10.09-3.1-11.36-6.07c-1-2.21.72-2.45,1.64-2.44-1-.1-3.26-.47-3.94-1.65-.9-1.55,2.61-3.38,2.61-3.38a2.75,2.75,0,0,1,0-2.4c.58-1.55,13.73-3.81,13.73-3.81-3.83.42-5.23-3.38-5.23-3.38s-6.52.14-8.05-2.4,1-3.25,5.37-5.36,13.91-10,13.91-10-6-.56-7.66-2-.13-1.7-.13-1.7c-7.15.71-4.72-3.1-4.72-3.1a32,32,0,0,0,14.69-9.45s-4.47-1-6.77-3.11,1.91-2.68,1.91-2.68-8.43-1.13-3.57-4.23c3.69-2.36,9.59-5.53,11.42-6.48-2,.73-6.57-.15-6.57-.15-5.36-2.4,0-5.92,0-5.92,6.26-3.53,15.45-12.42,15.45-12.42s-4.6,2.4-6.89,1.69,2.55-3.52,2.55-3.52-2.43.7-3.45,0,2.68-3.95,2.68-3.95c5.51-3.57,12.29-12.92,15.13-16.94,2.84,4,9.63,13.37,15.13,16.94,0,0,3.71,3.24,2.68,3.95s-3.44,0-3.44,0,4.85,2.82,2.55,3.52-6.9-1.69-6.9-1.69,9.2,8.89,15.46,12.42c0,0,5.36,3.52,0,5.92,0,0-4.56.88-6.57.15,1.83,1,7.73,4.12,11.42,6.48,4.85,3.1-3.58,4.23-3.58,4.23s4.22.57,1.92,2.68-6.77,3.11-6.77,3.11a32,32,0,0,0,14.69,9.45s2.42,3.81-4.73,3.1c0,0,1.53.28-.13,1.7s-7.66,2-7.66,2,9.58,7.9,13.92,10,6.9,2.82,5.36,5.36-8,2.4-8,2.4-1.41,3.8-5.24,3.38c0,0,13.16,2.26,13.73,3.81a2.71,2.71,0,0,1,0,2.4s3.51,1.83,2.62,3.38c-.68,1.18-2.91,1.55-3.94,1.65.91,0,2.59.23,1.64,2.44-1.28,3-11.36,6.07-11.36,6.07s8.55,3.53,14.68,0c0,0,2.17,1,.77,2.82s-.77,2.26-.77,2.26,3.19-2.4,1.79,1.27-8.81,5.92-8.81,5.92,4.21.71,2.93,3-6.64,4.93-12.51,5.5-13.79-1.55-13.79-1.55,5.36,2.82,1.66,4.37-7.92-2-7.92-2,.77,3.61-2.3,2.37A21,21,0,0,1,202,446.9s-.95,5.33-2.87,4.05c-1.91,1.28-2.87-4.05-2.87-4.05a20.79,20.79,0,0,1-5.62,3.64c-3.06,1.24-2.29-2.37-2.29-2.37s-4.22,3.53-7.92,2,1.66-4.37,1.66-4.37-7.92,2.11-13.79,1.55-11.24-3.25-12.52-5.5,2.94-3,2.94-3-7.41-2.25-8.81-5.92S151.7,431.67,151.7,431.67Z" style="fill:#455a64"></path><path d="M180.47,347.31l.2-.09A.88.88,0,0,0,180.47,347.31Z"></path><g style="opacity:0.1"><path d="M190.09,332.85l3-1.19a3.61,3.61,0,0,0,4.86.85,12.85,12.85,0,0,0,4.87-4.88s4.47,2.95,4.93,1.08a2.28,2.28,0,0,0-1.4-2.61,1.18,1.18,0,0,1,.11,1c-.19.34-.63.33-1,.24a5.75,5.75,0,0,1-3-2,10.28,10.28,0,0,1-4.59,4.67,3.37,3.37,0,0,1-2.65.62,1.62,1.62,0,0,1-.82-2.38,8,8,0,0,1-5.67,3.19c-.46,0-1.06-.09-1.15-.59a1.13,1.13,0,0,1,.27-.82,10,10,0,0,1,2.39-2.45,13.76,13.76,0,0,1-6.92,2.62l-2.16.29c-.07.26,0,.47.14.59,1,.71,3.45,0,3.45,0s-4.85,2.83-2.55,3.53,6.89-1.69,6.89-1.69l-.56.54Z"></path></g><g style="opacity:0.1"><path d="M217.25,351.81l-5.9-2.12a4.13,4.13,0,0,1-4.27,3.39s-3.13.26-3.38-3.39c0,0-3,2.92-9.09,2.06,0,0-1-.14-.78-1.8a3.4,3.4,0,0,1-4.39.6c-2.77-1.46-.37-3.92-.37-3.92l.38-.2a1.92,1.92,0,0,0-.29,1.59c.3.73,1.25.68,2,.46a15.39,15.39,0,0,0,5.36-3,5.91,5.91,0,0,0-1.11,1.68,2.15,2.15,0,0,0,.19,2,2.2,2.2,0,0,0,1.7.68,10.08,10.08,0,0,0,8.21-3.74c0,.95-.2,1.89-.17,2.83a2.41,2.41,0,0,0,1.26,2.27c1,.34,2-.57,2.39-1.59s.52-2.18,1-3.18a12.71,12.71,0,0,0,5,3.08,3.48,3.48,0,0,0,1.62.21,1.61,1.61,0,0,0,1.26-1,1.26,1.26,0,0,0-.41-1.37c2.36,1.08,7.84,3,8.91.32.58,1.15.45,2.55-2.1,3.69,0,0-4.56.88-6.57.14l1.43.76Z"></path></g><g style="opacity:0.1"><path d="M176.16,369.16a11.1,11.1,0,0,0,4.32-1.66A2.47,2.47,0,0,0,183.3,369a7.08,7.08,0,0,0,3-1.69,4.51,4.51,0,0,0,3.45,2,4.45,4.45,0,0,0,3.59-1.67c3.73,2.75,8.15,4.77,12.6,4.18a3.17,3.17,0,0,0,2.23-1.06c.53-.7.45-2-.32-2.33,2.72.59,5.54,1.17,8.23.42a5.51,5.51,0,0,0,4.26-6.46,6.94,6.94,0,0,1-.7,1.95,2.65,2.65,0,0,1-1.52,1,17.43,17.43,0,0,1-13.65-1.14c.89,1,.28,2.83-.85,3.47a5.36,5.36,0,0,1-3.71.2,15.73,15.73,0,0,1-4-1.19,6.5,6.5,0,0,1-3.06-3,8.11,8.11,0,0,1-1.83,2.47,2.38,2.38,0,0,1-2.73.36,1.86,1.86,0,0,1-.37-2.71,18.1,18.1,0,0,1-5.8,2.34,1.5,1.5,0,0,1-1.47-.26,1.34,1.34,0,0,1,.09-1.58,2,2,0,0,1,.45-.41,16.17,16.17,0,0,1-9.14,1.5l0,.56a20.93,20.93,0,0,0,5.24,2S176.87,368.43,176.16,369.16Z"></path></g><g style="opacity:0.1"><path d="M225.66,388.53a27,27,0,0,1-8.18-2.18,13.17,13.17,0,0,1-15.39-.09,10.07,10.07,0,0,1-12.79.75,10.29,10.29,0,0,1-6.36,1.2,5.14,5.14,0,0,1-4.06-4.9,6.51,6.51,0,0,0,10.23,0,7.25,7.25,0,0,0,6.17,2.93,7.52,7.52,0,0,0,5.81-3.74,13.26,13.26,0,0,0,10.38,3,5.06,5.06,0,0,0,2.9-1.22,2.9,2.9,0,0,0,.75-3.12,13.62,13.62,0,0,0,16.37.08l0,.09a2.47,2.47,0,0,1-.73.87c-1.66,1.41-7.66,2-7.66,2s2.39,2,5.32,4.2A13.21,13.21,0,0,1,225.66,388.53Z"></path></g><g style="opacity:0.1"><path d="M159.52,401.56a21.43,21.43,0,0,0,4.31.4s1.4,3.81,5.23,3.39c0,0-1.9.32-4.3.81a9.49,9.49,0,0,0,8.85-1.1,12.8,12.8,0,0,0,17.38.58,13,13,0,0,0,16.93.17,11.8,11.8,0,0,0,9.4,3.27,9.48,9.48,0,0,0,7.58-6.53,13.84,13.84,0,0,1-17.34-1.31,2.92,2.92,0,0,1-1.85,2.42,6.85,6.85,0,0,1-3,.31c-4.13-.21-8.49-.85-11.69-3.73a9.57,9.57,0,0,1-8.44,3.8,10,10,0,0,1-7.64-5.49,19.43,19.43,0,0,1-18.54-.39Z"></path></g><g style="opacity:0.1"><path d="M185.31,420.23a3.82,3.82,0,0,0,1.71,3.26,6.53,6.53,0,0,0,3.45.93,14.82,14.82,0,0,0,10.12-3.67,10.84,10.84,0,0,0,17.29,0,30.88,30.88,0,0,0,24.25-3.44l1.1.61A3,3,0,0,1,243,419c-1.28,3-11.37,6.07-11.37,6.07a20.87,20.87,0,0,0,2.62.82c-1.75.53-3.25,1-4.21,1.27a10.06,10.06,0,0,1-10.39-2.35,12.26,12.26,0,0,1-19.19-.2c-2.32,2.63-5.38,4.69-8.71,4.81a7.79,7.79,0,0,1-7.73-5.63,9.84,9.84,0,0,1-11.45-4.33A13.19,13.19,0,0,0,185.31,420.23Z"></path></g><rect x="392.26" y="418.41" width="16.15" height="64.24" transform="translate(800.67 901.07) rotate(180)" style="fill:#6f4439"></rect><path d="M461.58,418.23s-.8-.53.95-2.81-.95-3.51-.95-3.51c-7.64,4.39-18.29,0-18.29,0s12.56-3.87,14.15-7.56c1.19-2.75-.9-3.06-2-3,1.28-.13,4.06-.58,4.9-2.05C461.42,397.33,457,395,457,395a3.36,3.36,0,0,0,0-3c-.71-1.94-17.09-4.75-17.09-4.75,4.77.53,6.52-4.21,6.52-4.21s8.11.17,10-3-1.27-4-6.68-6.67S432.48,361,432.48,361s7.47-.71,9.54-2.46.16-2.11.16-2.11c8.9.88,5.88-3.87,5.88-3.87a39.83,39.83,0,0,1-18.29-11.76s5.57-1.23,8.43-3.87-2.38-3.34-2.38-3.34,10.49-1.4,4.45-5.27c-4.59-2.93-11.94-6.88-14.22-8.07,2.5.92,8.18-.18,8.18-.18,6.67-3,0-7.38,0-7.38C426.44,308.27,415,297.2,415,297.2s5.72,3,8.58,2.11-3.18-4.39-3.18-4.39,3,.88,4.3,0-3.34-4.92-3.34-4.92c-6.86-4.44-15.31-16.09-18.84-21.09-3.54,5-12,16.65-18.84,21.09,0,0-4.61,4-3.34,4.92s4.29,0,4.29,0-6,3.51-3.18,4.39S390,297.2,390,297.2s-11.45,11.07-19.24,15.46c0,0-6.68,4.39,0,7.38,0,0,5.68,1.1,8.18.18-2.28,1.19-9.63,5.14-14.22,8.07-6,3.87,4.45,5.27,4.45,5.27s-5.25.71-2.38,3.34,8.42,3.87,8.42,3.87A39.77,39.77,0,0,1,357,352.53s-3,4.75,5.88,3.87c0,0-1.91.35.16,2.11s9.54,2.46,9.54,2.46-11.93,9.83-17.33,12.47-8.59,3.51-6.68,6.67,10,3,10,3,1.75,4.74,6.52,4.21c0,0-16.38,2.81-17.1,4.75a3.4,3.4,0,0,0,0,3s-4.37,2.29-3.26,4.22c.85,1.47,3.63,1.92,4.91,2.05-1.14,0-3.23.29-2,3,1.59,3.69,14.15,7.56,14.15,7.56s-10.66,4.39-18.29,0c0,0-2.7,1.23-.95,3.51s.95,2.81.95,2.81-4-3-2.22,1.58,11,7.38,11,7.38-5.25.88-3.66,3.69,8.27,6.14,15.58,6.85,17.17-1.94,17.17-1.94-6.67,3.52-2.06,5.45,9.86-2.46,9.86-2.46-1,4.5,2.86,3a25.94,25.94,0,0,0,7-4.53s1.2,6.63,3.58,5c2.38,1.59,3.57-5,3.57-5a25.89,25.89,0,0,0,7,4.53c3.82,1.55,2.86-3,2.86-3s5.25,4.39,9.86,2.46-2.07-5.45-2.07-5.45,9.86,2.64,17.17,1.94,14-4,15.59-6.85-3.66-3.69-3.66-3.69,9.22-2.81,11-7.38S461.58,418.23,461.58,418.23Z" style="fill:#455a64"></path><path d="M425.74,313.19l-.25-.11A.71.71,0,0,1,425.74,313.19Z"></path><g style="opacity:0.1"><path d="M413.76,295.18,410,293.7s-2.1,3.11-6.06,1.06a16,16,0,0,1-6.07-6.07s-5.56,3.67-6.14,1.34a2.84,2.84,0,0,1,1.75-3.25,1.45,1.45,0,0,0-.14,1.3c.24.41.79.4,1.23.29a7,7,0,0,0,3.79-2.46,12.77,12.77,0,0,0,5.72,5.81,4.22,4.22,0,0,0,3.3.77c1.1-.35,1.84-2.06,1-3a10,10,0,0,0,7.06,4c.58.05,1.33-.1,1.44-.73a1.46,1.46,0,0,0-.34-1,12.27,12.27,0,0,0-3-3,17.07,17.07,0,0,0,8.61,3.26l2.69.36a.61.61,0,0,1-.17.74c-1.28.88-4.3,0-4.3,0s6.05,3.51,3.18,4.39-8.58-2.11-8.58-2.11l.7.68Z"></path></g><g style="opacity:0.1"><path d="M380,318.8l7.35-2.65s.82,4.47,5.32,4.22c0,0,3.9.33,4.2-4.22,0,0,3.74,3.64,11.31,2.56,0,0,1.28-.16,1-2.23a4.23,4.23,0,0,0,5.47.74c3.45-1.82.45-4.88.45-4.88l-.46-.25a2.42,2.42,0,0,1,.36,2c-.38.91-1.56.85-2.43.57a19,19,0,0,1-6.67-3.73,7.06,7.06,0,0,1,1.37,2.1,2.61,2.61,0,0,1-.23,2.46,2.75,2.75,0,0,1-2.11.84,12.55,12.55,0,0,1-10.23-4.65c0,1.18.25,2.35.21,3.53s-.55,2.47-1.57,2.82c-1.2.42-2.44-.71-3-2s-.65-2.72-1.22-4a15.83,15.83,0,0,1-6.28,3.85,4.34,4.34,0,0,1-2,.26,2,2,0,0,1-1.57-1.28,1.55,1.55,0,0,1,.51-1.7c-3,1.34-9.76,3.72-11.1.4-.71,1.43-.56,3.17,2.62,4.59,0,0,5.67,1.1,8.18.18l-1.78.94Z"></path></g><g style="opacity:0.1"><path d="M431.12,340.39a13.62,13.62,0,0,1-5.38-2.06,3.1,3.1,0,0,1-3.52,1.85,9,9,0,0,1-3.72-2.11,5.64,5.64,0,0,1-4.3,2.48,5.54,5.54,0,0,1-4.46-2.08c-4.64,3.42-10.16,5.94-15.7,5.2a4,4,0,0,1-2.77-1.32c-.66-.87-.56-2.48.4-2.9-3.39.73-6.9,1.46-10.24.53s-6-3.71-5.32-8.05a8.72,8.72,0,0,0,.87,2.42,3.29,3.29,0,0,0,1.9,1.25,21.69,21.69,0,0,0,17-1.42c-1.12,1.23-.35,3.52,1.05,4.32s3.07.55,4.62.25a19.67,19.67,0,0,0,5-1.47,8.13,8.13,0,0,0,3.81-3.7,10.13,10.13,0,0,0,2.28,3.08,3,3,0,0,0,3.4.45,2.32,2.32,0,0,0,.46-3.38,22.38,22.38,0,0,0,7.23,2.91,1.79,1.79,0,0,0,1.82-.32,1.64,1.64,0,0,0-.11-2,2.51,2.51,0,0,0-.56-.52,20.15,20.15,0,0,0,11.38,1.87l.06.7a26.13,26.13,0,0,1-6.53,2.5S430.23,339.48,431.12,340.39Z"></path></g><g style="opacity:0.1"><path d="M369.47,364.51a33.12,33.12,0,0,0,10.19-2.72,16.38,16.38,0,0,0,19.17-.1,12.5,12.5,0,0,0,15.92.93c2.51,1.16,5.25,2.07,7.92,1.49a6.4,6.4,0,0,0,5.06-6.1A8.11,8.11,0,0,1,415,358a9,9,0,0,1-7.69,3.65,9.35,9.35,0,0,1-7.23-4.66,16.5,16.5,0,0,1-12.93,3.78,6.41,6.41,0,0,1-3.61-1.52,3.64,3.64,0,0,1-.93-3.89,17,17,0,0,1-20.39.1l0,.11a3.11,3.11,0,0,0,.9,1.09c2.07,1.75,9.55,2.46,9.55,2.46s-3,2.45-6.63,5.24A16.31,16.31,0,0,0,369.47,364.51Z"></path></g><g style="opacity:0.1"><path d="M451.83,380.74a26.74,26.74,0,0,1-5.36.5s-1.75,4.74-6.52,4.21c0,0,2.37.41,5.35,1a11.79,11.79,0,0,1-11-1.38,15.93,15.93,0,0,1-21.64.73,16.13,16.13,0,0,1-21.08.22c-3.25,2.94-7.54,4.66-11.71,4.07a11.82,11.82,0,0,1-9.44-8.14,17.25,17.25,0,0,0,21.6-1.62,3.62,3.62,0,0,0,2.3,3,8.38,8.38,0,0,0,3.73.39c5.13-.26,10.56-1.06,14.55-4.65a11.89,11.89,0,0,0,10.5,4.74,12.45,12.45,0,0,0,9.52-6.84,24.18,24.18,0,0,0,23.08-.48Z"></path></g><g style="opacity:0.1"><path d="M419.72,404a4.74,4.74,0,0,1-2.13,4.06,8,8,0,0,1-4.29,1.16,18.42,18.42,0,0,1-12.61-4.57,13.5,13.5,0,0,1-21.52,0A38.48,38.48,0,0,1,349,400.3l-1.37.75a3.55,3.55,0,0,0,.36,1.44c1.59,3.69,14.15,7.56,14.15,7.56a28.29,28.29,0,0,1-3.26,1c2.17.65,4,1.19,5.24,1.57A12.52,12.52,0,0,0,377,409.72a15.24,15.24,0,0,0,23.88-.24c2.9,3.28,6.71,5.83,10.85,6a9.67,9.67,0,0,0,9.63-7c5.12,1.86,11.24-.45,14.25-5.39A16.4,16.4,0,0,1,419.72,404Z"></path></g></g><g id="freepik--Plants--inject-207"><path d="M471.92,480.25l-3.14,2.16,1.79-3.11c-.81-.57-1.64-1.13-2.49-1.7L465,481.14l1.86-4.36c-.84-.54-1.69-1.08-2.56-1.6l-2.78,5.47,1.56-6.21-1.28-.74-3.25,7.09,2-7.81q-1.92-1.05-3.95-2.06c-1.82,2.65-5.3,7.64-5.3,7.64l2.68-8.87c-2.55-1.14-5.24-2.2-8.09-3.15l-4,10.75,1.73-11.47c-2.3-.69-4.7-1.31-7.22-1.84l-4,12.72,1.18-13.27-1.7-.28-1.91,13.56-1.18-14c-3.06-.38-6.28-.63-9.66-.73L417,475.66l-.9-13.71c-.76,0-1.53,0-2.31,0l-.11,13.66L411.41,462l-1.08,0c-1.9.09-3.73.21-5.54.34l-2.49,16.83,0-16.62-2.15.19L399,479.13l-1.75-16q-4.91.57-9.28,1.34L386,479.6l-1.4-14.52-1.65.35.62,14.06L380,466.08q-3.81.9-7.17,1.91l1.24,11.67-3.53-11c-3,1-5.71,2-8.15,3l2.22,8.77s-3.06-4.85-4.79-7.62q-2.22,1-4.11,2.07l1.54,7.45-2.75-6.78q-.72.41-1.38.81l1.16,5.7-2.28-5c-.94.6-1.8,1.17-2.57,1.73l1.36,3.62-2.34-2.9c-1,.75-1.84,1.43-2.54,2l1,2-1.73-1.3c-.71.66-1.23,1.19-1.56,1.56l.12.18h67.34l66.41.05C475.72,482.71,473.87,481.64,471.92,480.25Z" style="fill:#455a64"></path><path d="M178.19,479.68l-3.52,2.79,2-4c-.91-.73-1.84-1.46-2.78-2.19l-3.5,4.58,2.09-5.64c-.94-.7-1.89-1.4-2.86-2.09l-3.12,7.09,1.75-8-1.44-1-3.65,9.19,2.22-10.12q-2.16-1.36-4.44-2.66c-2,3.43-5.94,9.9-5.94,9.9L158,466a87.63,87.63,0,0,0-9.07-4.09l-4.48,13.92L146.39,461c-2.58-.9-5.28-1.7-8.1-2.38l-4.47,16.48,1.31-17.19-1.9-.37-2.14,17.56L129.77,457a98.75,98.75,0,0,0-10.84-.94l-2.36,17.7-1-17.76c-.86,0-1.72,0-2.6,0l-.12,17.69-2.5-17.6-1.22.05c-2.13.12-4.19.27-6.21.44l-2.79,21.8,0-21.53-2.41.25-1.29,21.13-2-20.73c-3.67.49-7.14,1.08-10.41,1.74l-2.19,19.61L80.27,460c-.64.14-1.24.3-1.86.45l.7,18.22-4-17.37c-2.85.77-5.53,1.6-8,2.47l1.38,15.11-4-14.18a99.59,99.59,0,0,0-9.15,3.94L57.85,480s-3.44-6.28-5.38-9.87c-1.66.89-3.2,1.79-4.61,2.67l1.73,9.66-3.09-8.78c-.53.35-1,.7-1.55,1.05l1.31,7.37-2.55-6.49c-1.06.77-2,1.52-2.89,2.23l1.53,4.7-2.63-3.77c-1.12,1-2.06,1.87-2.85,2.66V484H184C182,482.23,180.37,481.48,178.19,479.68Z" style="fill:#455a64"></path><path d="M309,455.14a5.41,5.41,0,0,0-3,3.06,9.48,9.48,0,0,0-.57,4.29,17,17,0,0,0,3.27,8c2.45-1.95,3.15-5.51,3.39-7.34.38-2.89-.68-8.35-3.14-8" style="fill:#000000"></path><path d="M305.78,475a4.61,4.61,0,0,0-1.3-4.46,6.12,6.12,0,0,0-4.47-1.61,2.54,2.54,0,0,0-2,.8,2,2,0,0,0-.12,2,4,4,0,0,0,1.42,1.53c2,1.37,4.15,2.33,6.49,1.74" style="fill:#000000"></path><path d="M308.42,483.71a2.76,2.76,0,0,0-.06-.58c-.05-.4-.13-.93-.21-1.56a16.43,16.43,0,0,0-1.39-5,9.92,9.92,0,0,0-3.39-4,7,7,0,0,0-1.42-.7,4.33,4.33,0,0,0-.42-.13c-.09,0-.14,0-.15,0a9.75,9.75,0,0,1,1.91,1,10.16,10.16,0,0,1,3.29,3.91,17.21,17.21,0,0,1,1.42,5c.12.66.21,1.19.28,1.56A4.43,4.43,0,0,0,308.42,483.71Z" style="fill:#263238"></path><path d="M309.41,459.37a1.08,1.08,0,0,0,0,.25c0,.19-.05.43-.08.72-.06.62-.13,1.53-.22,2.65-.17,2.24-.37,5.33-.5,8.75s-.19,6.53-.2,8.77c0,1.12,0,2,0,2.66,0,.29,0,.53,0,.72a1.27,1.27,0,0,0,0,.25,1.27,1.27,0,0,0,0-.25c0-.19,0-.43,0-.72,0-.66,0-1.56.06-2.66,0-2.24.12-5.34.25-8.76s.31-6.51.44-8.75c.07-1.1.12-2,.16-2.65,0-.3,0-.54,0-.73A.81.81,0,0,0,309.41,459.37Z" style="fill:#263238"></path><path d="M309.78,476.89a10.83,10.83,0,0,1,6.26-7.67,1.8,1.8,0,0,1,2.54,2.54,9.26,9.26,0,0,1-8.76,5.36" style="fill:#000000"></path><path d="M315.54,471.86a3,3,0,0,0-.51.2,4.66,4.66,0,0,0-.58.27,7.42,7.42,0,0,0-.74.42c-.26.17-.56.35-.85.58a11.82,11.82,0,0,0-.91.76,12.1,12.1,0,0,0-1.76,2.06,11.63,11.63,0,0,0-1.2,2.43,10.09,10.09,0,0,0-.33,1.14,8.82,8.82,0,0,0-.19,1c-.05.31-.05.6-.07.85a3.49,3.49,0,0,0,0,.64,3.68,3.68,0,0,0,0,.54c.05,0,0-.77.2-2a8.41,8.41,0,0,1,.2-1,10.71,10.71,0,0,1,.34-1.11,12.08,12.08,0,0,1,1.2-2.38,12.66,12.66,0,0,1,1.72-2,11.59,11.59,0,0,1,.88-.76,9.47,9.47,0,0,1,.83-.6C314.83,472.19,315.56,471.9,315.54,471.86Z" style="fill:#263238"></path></g><g id="freepik--Sun--inject-207"><circle cx="268.49" cy="68.87" r="35.83" style="fill:#000000"></circle><circle cx="268.49" cy="68.87" r="35.83" style="fill:#fff;opacity:0.9"></circle><circle cx="268.49" cy="68.87" r="31.96" style="fill:#000000"></circle><circle cx="268.49" cy="68.87" r="31.96" style="fill:#fff;opacity:0.6000000000000001"></circle><circle cx="268.49" cy="68.87" r="26.59" transform="translate(-7.73 45.81) rotate(-9.61)" style="fill:#000000"></circle><circle cx="268.49" cy="68.87" r="26.59" transform="translate(-7.73 45.81) rotate(-9.61)" style="fill:#fff;opacity:0.30000000000000004"></circle><path d="M289.78,68.87a21.29,21.29,0,1,1-21.29-21.29A21.3,21.3,0,0,1,289.78,68.87Z" style="fill:#000000;fill-rule:evenodd"></path></g><g id="freepik--Device--inject-207"><path d="M146.42,212.45s-2.78,1.22-19.37,1.22c-9.36,0-26.6-3.38-26.6-3.38Z" style="fill:#263238"></path><path d="M154.3,210.25s-2.66,2.82-9.13,2.8-45.64-2.86-45.38-2.8,54.52-.47,54.52-.47Z" style="fill:#455a64"></path><rect x="153.82" y="207.92" width="3.37" height="5.75" transform="translate(311.01 421.59) rotate(180)" style="fill:#e0e0e0"></rect><polygon points="149.17 214.89 149.17 212.93 160.98 212.93 160.98 215.45 149.17 214.89" style="fill:#263238"></polygon><path d="M152.05,250.46l-3.57-24.69-1.62-1.53v-7.81l1.19-1.54h13.56l-.28,9.63-1.72,25.77a2.22,2.22,0,0,1-2.19,2.08h-3.2A2.2,2.2,0,0,1,152.05,250.46Z" style="fill:#000000"></path><polygon points="165.59 214.89 230.13 208.68 228.41 218.02 164.22 224.52 159.52 224.52 159.52 214.89 165.59 214.89" style="fill:#000000"></polygon><path d="M203.6,209.49s-34,4.63-39.09,3.8a27,27,0,0,1-9-3.29Z" style="fill:#455a64"></path><path d="M154.3,210.25s-2.66,2.82-9.13,2.8-45.64-2.86-45.38-2.8,54.52-.47,54.52-.47Z" style="opacity:0.30000000000000004"></path><path d="M203.6,209.49s-34,4.63-39.09,3.8a27,27,0,0,1-9-3.29Z" style="opacity:0.30000000000000004"></path><rect x="153.82" y="207.92" width="3.37" height="0.52" transform="translate(311.01 416.36) rotate(180)" style="fill:#000000"></rect><polygon points="146.86 216.43 148.82 215.99 148.05 214.89 146.86 216.43" style="opacity:0.30000000000000004"></polygon><path d="M161.83,219.19a19.7,19.7,0,0,1-.44,6.37,19.7,19.7,0,0,1,.44-6.37Z" style="fill:#263238"></path><path d="M227.69,218.09l-1.12-3.9-17.19-3.51-2.19.12a7.19,7.19,0,0,0,4.54,5.25c3.91,1.41,10.48.55,10.48.55l.6,2Z" style="opacity:0.30000000000000004"></path><path d="M375.7,213.3s2.79,1.22,19.38,1.22c9.35,0,26.6-3.37,26.6-3.37Z" style="fill:#263238"></path><path d="M367.83,211.11s2.66,2.82,9.13,2.8,45.64-2.87,45.38-2.8-54.52-.47-54.52-.47Z" style="fill:#455a64"></path><rect x="364.94" y="208.78" width="3.37" height="5.75" style="fill:#e0e0e0"></rect><polygon points="372.96 215.75 372.96 213.78 361.15 213.78 361.15 216.31 372.96 215.75" style="fill:#263238"></polygon><path d="M370.08,251.32l3.57-24.69,1.62-1.54v-7.8l-1.19-1.54H360.51l.29,9.63,1.72,25.76a2.22,2.22,0,0,0,2.19,2.09h3.2A2.2,2.2,0,0,0,370.08,251.32Z" style="fill:#000000"></path><polygon points="356.54 215.75 292 209.53 293.72 218.87 357.91 225.38 362.61 225.38 362.61 215.75 356.54 215.75" style="fill:#000000"></polygon><path d="M318.53,210.35s34,4.62,39.09,3.8a27,27,0,0,0,9.05-3.29Z" style="fill:#455a64"></path><path d="M367.83,211.11s2.66,2.82,9.13,2.8,45.64-2.87,45.38-2.8-54.52-.47-54.52-.47Z" style="opacity:0.30000000000000004"></path><path d="M318.53,210.35s34,4.62,39.09,3.8a27,27,0,0,0,9.05-3.29Z" style="opacity:0.30000000000000004"></path><rect x="364.94" y="208.78" width="3.37" height="0.52" style="fill:#000000"></rect><polygon points="375.26 217.29 373.31 216.84 374.08 215.75 375.26 217.29" style="opacity:0.30000000000000004"></polygon><path d="M360.3,220.05a10.35,10.35,0,0,1,.48,3.16,9.64,9.64,0,0,1,0,3.2,10.17,10.17,0,0,1-.47-3.16A9.49,9.49,0,0,1,360.3,220.05Z" style="fill:#263238"></path><path d="M131.34,177.66s4.5,2,31.26,2c15.09,0,42.91-5.45,42.91-5.45Z" style="fill:#263238"></path><path d="M118.64,174.13s4.29,4.54,14.72,4.51S207,174,206.58,174.13s-88-.76-88-.76Z" style="fill:#455a64"></path><rect x="113.98" y="170.37" width="5.43" height="9.27" style="fill:#e0e0e0"></rect><polygon points="108.95 181.22 108.95 178.64 124.44 178.64 124.44 181.95 108.95 181.22" style="fill:#263238"></polygon><path d="M112.73,227.85l-4.68-32.37-2.12-2V183.24l1.55-2h17.78l-.37,12.63-2.26,33.77a2.89,2.89,0,0,1-2.86,2.73h-4.2A2.9,2.9,0,0,1,112.73,227.85Z" style="fill:#000000"></path><polygon points="130.48 181.22 213.96 193.54 211.7 205.78 128.68 193.84 122.52 193.84 122.52 181.22 130.48 181.22" style="fill:#000000"></polygon><path d="M39.11,172.9s54.81,7.46,63.06,6.13a43.72,43.72,0,0,0,14.6-5.31Z" style="fill:#455a64"></path><polygon points="201.92 191.76 201.92 204.38 209.1 205.41 209.1 192.82 201.92 191.76" style="opacity:0.30000000000000004"></polygon><rect x="113.98" y="170.37" width="5.43" height="0.83" style="fill:#000000"></rect><polygon points="105.93 183.24 108.49 182.66 107.48 181.22 105.93 183.24" style="opacity:0.30000000000000004"></polygon><path d="M125.55,186.85a17.24,17.24,0,0,1,0,4.19,17,17,0,0,1-.54,4.16,16.92,16.92,0,0,1,0-4.19A17.23,17.23,0,0,1,125.55,186.85Z" style="fill:#263238"></path><path d="M389.11,177.66s-4.5,2-31.26,2c-15.09,0-42.91-5.45-42.91-5.45Z" style="fill:#263238"></path><path d="M401.81,174.13s-4.29,4.54-14.72,4.51-73.63-4.62-73.22-4.51,88-.76,88-.76Z" style="fill:#455a64"></path><rect x="401.04" y="170.37" width="5.43" height="9.27" transform="translate(807.51 350.01) rotate(180)" style="fill:#e0e0e0"></rect><polygon points="411.5 181.22 411.5 178.64 396.01 178.64 396.01 181.95 411.5 181.22" style="fill:#263238"></polygon><path d="M407.72,227.85l4.68-32.37,2.12-2V183.24l-1.55-2H395.18l.38,12.63,2.26,33.77a2.89,2.89,0,0,0,2.86,2.73h4.2A2.9,2.9,0,0,0,407.72,227.85Z" style="fill:#000000"></path><polygon points="389.97 181.22 306.49 193.54 308.75 205.78 391.77 193.84 397.93 193.84 397.93 181.22 389.97 181.22" style="fill:#000000"></polygon><path d="M481.34,172.9s-54.82,7.46-63.06,6.13a43.72,43.72,0,0,1-14.6-5.31Z" style="fill:#455a64"></path><polygon points="318.53 191.76 318.53 204.38 311.35 205.41 311.35 192.82 318.53 191.76" style="opacity:0.30000000000000004"></polygon><rect x="401.04" y="170.37" width="5.43" height="0.83" transform="translate(807.51 341.57) rotate(180)" style="fill:#000000"></rect><polygon points="414.52 183.24 411.96 182.66 412.97 181.22 414.52 183.24" style="opacity:0.30000000000000004"></polygon><path d="M394.9,186.85a17,17,0,0,1,.54,4.16,16.66,16.66,0,0,1,0,4.19,17,17,0,0,1-.54-4.16A16.66,16.66,0,0,1,394.9,186.85Z" style="fill:#263238"></path><path d="M294.44,219l1.12-3.9,17.19-3.52,2.19.12a7.23,7.23,0,0,1-4.54,5.26c-3.91,1.41-10.48.55-10.48.55l-.6,2Z" style="opacity:0.30000000000000004"></path><path d="M226.24,214.8l5.62,18.27c1.48,4.82,5.17,8,9.29,8H281c4,0,7.62-3,9.17-7.64l6.92-20.66Z" style="fill:#000000"></path><path d="M209.25,207.62V191.2a7.18,7.18,0,0,1,7.1-7.25H225l1.2-2.15a9.39,9.39,0,0,1,8.2-4.88h51.08a9.41,9.41,0,0,1,8.11,4.7l1.37,2.2,12.15,0a6.84,6.84,0,0,1,6.61,6.9V208a6.83,6.83,0,0,1-6.76,6.9H216.35A7.18,7.18,0,0,1,209.25,207.62Z" style="fill:#000000"></path><rect x="213.96" y="194.02" width="2.34" height="12.68" rx="1.07" style="opacity:0.30000000000000004"></rect><rect x="218.19" y="194.02" width="2.34" height="12.68" rx="1.07" style="opacity:0.30000000000000004"></rect><rect x="222.41" y="194.02" width="2.34" height="12.68" rx="1.07" style="opacity:0.30000000000000004"></rect><rect x="299.92" y="194.02" width="2.34" height="12.68" rx="1.07" style="opacity:0.30000000000000004"></rect><rect x="304.15" y="194.02" width="2.34" height="12.68" rx="1.07" style="opacity:0.30000000000000004"></rect><rect x="308.38" y="194.02" width="2.34" height="12.68" rx="1.07" style="opacity:0.30000000000000004"></rect><rect x="238.66" y="214.87" width="43.8" height="21.52" rx="5.74" style="fill:#455a64"></rect><path d="M296.67,183.82c0,.15-16.25.26-36.29.26s-36.3-.11-36.3-.26,16.25-.26,36.3-.26S296.67,183.68,296.67,183.82Z" style="fill:#263238"></path><path d="M298.37,214.87c0,.14-16.47.26-36.79.26s-36.79-.12-36.79-.26,16.47-.26,36.79-.26S298.37,214.72,298.37,214.87Z" style="fill:#263238"></path><path d="M209.1,192.28a53.12,53.12,0,0,1,.26,7.37,53.12,53.12,0,0,1-.26,7.37,51.32,51.32,0,0,1-.26-7.37A51.32,51.32,0,0,1,209.1,192.28Z" style="fill:#263238"></path><path d="M313.88,192.28a53.12,53.12,0,0,1,.26,7.37,53.12,53.12,0,0,1-.26,7.37,53.12,53.12,0,0,1-.26-7.37A53.12,53.12,0,0,1,313.88,192.28Z" style="fill:#263238"></path><ellipse cx="260.85" cy="225.63" rx="9" ry="9.18" style="opacity:0.30000000000000004"></ellipse><path d="M266.37,225.63a5.52,5.52,0,1,1-5.52-5.64A5.57,5.57,0,0,1,266.37,225.63Z" style="opacity:0.30000000000000004"></path><ellipse cx="259.17" cy="225.36" rx="1.24" ry="1.26" style="fill:#000000"></ellipse><path d="M266.89,220.36c-1-2.21-3.89-3.27-6.22-3.19a3.38,3.38,0,0,0-1.34.27,1.21,1.21,0,0,0-.69,1.12,1.25,1.25,0,0,0,1.09.95,7.17,7.17,0,0,0,1.53-.07,4.86,4.86,0,0,1,4.38,2.28,1.42,1.42,0,0,0,.36.44.76.76,0,0,0,1.06-.48A1.8,1.8,0,0,0,266.89,220.36Z" style="fill:#fff"></path><ellipse cx="267.73" cy="223.73" rx="1.12" ry="1.14" style="fill:#fff"></ellipse><rect x="252.57" y="177.79" width="12.06" height="1.73" rx="0.78" style="fill:#fff"></rect><rect x="266.07" y="177.79" width="3.14" height="1.73" rx="0.78" style="fill:#fff"></rect></g></svg>
